<?xml version="1.0" standalone="no"?>
<!DOCTYPE svg PUBLIC "-//W3C//DTD SVG 20010904//EN"
 "http://www.w3.org/TR/2001/REC-SVG-20010904/DTD/svg10.dtd">
<svg version="1.0" xmlns="http://www.w3.org/2000/svg"
 width="987.000000pt" height="980.000000pt" viewBox="0 0 987.000000 980.000000"
 preserveAspectRatio="xMidYMid meet">

<g transform="translate(0.000000,980.000000) scale(0.100000,-0.100000)"
fill="#000000" stroke="none">
<path d="M6282 6318 c-7 -7 -12 -16 -12 -21 0 -5 7 -1 16 8 9 9 14 18 12 20
-2 3 -10 -1 -16 -7z"/>
<path d="M6512 6113 c-23 -20 -94 -184 -84 -195 15 -15 166 -68 172 -61 14 14
60 153 60 179 0 38 -18 64 -55 80 -45 19 -68 18 -93 -3z"/>
<path d="M3285 6057 c-16 -5 -70 -27 -120 -47 -49 -21 -238 -94 -420 -163
-181 -69 -456 -173 -610 -232 -154 -58 -290 -112 -302 -120 -30 -20 -113 -109
-135 -146 -36 -59 -58 -146 -58 -228 0 -70 6 -95 44 -198 56 -149 309 -817
454 -1198 60 -159 158 -418 217 -575 127 -336 131 -345 185 -394 57 -51 103
-69 180 -70 66 0 137 24 740 254 41 16 92 34 113 41 20 7 36 16 35 19 -2 3
-18 33 -36 67 -90 174 -176 446 -236 753 -76 387 -95 787 -57 1236 29 340 53
846 44 935 l-8 76 -30 -10z m-575 -306 c17 -33 1 -49 -82 -80 -98 -38 -116
-39 -124 -5 -9 34 3 43 89 76 87 32 103 34 117 9z m-273 -117 c12 -32 9 -33
-342 -166 -218 -83 -225 -84 -225 -30 0 28 5 31 128 77 70 27 188 72 262 101
138 53 162 56 177 18z m773 -23 c0 -25 -3 -28 -27 -23 -25 5 -26 3 -20 -26 4
-18 16 -51 27 -74 21 -44 25 -115 12 -211 l-7 -49 -115 -44 c-517 -199 -829
-312 -851 -308 -63 14 -77 32 -124 158 -34 93 -33 145 3 178 17 16 109 56 247
108 358 134 622 234 745 284 107 42 110 43 110 7z m-33 -658 c-3 -10 -5 -2 -5
17 0 19 2 27 5 18 2 -10 2 -26 0 -35z m-131 -21 c7 -9 27 -54 44 -100 31 -80
31 -84 16 -117 -20 -42 -51 -65 -88 -65 -16 0 -28 -4 -28 -10 0 -5 -6 -10 -12
-10 -7 -1 -31 -9 -53 -20 -48 -23 -103 -25 -131 -6 -11 8 -28 34 -39 58 -10
24 -24 58 -32 77 -29 66 -1 137 62 157 11 3 34 12 51 20 104 46 183 53 210 16z
m-510 -168 c14 -4 29 -24 44 -57 58 -134 57 -133 39 -187 -9 -25 -23 -37 -66
-56 -85 -38 -165 -64 -195 -64 -41 0 -82 45 -112 122 -28 73 -31 82 -17 74 5
-4 7 3 4 14 -11 41 5 64 59 89 29 13 61 28 70 32 10 5 27 9 38 9 11 0 20 4 20
9 0 17 74 26 116 15z m646 -258 c4 -74 6 -105 13 -172 l8 -70 -34 -17 c-37
-18 -26 -23 16 -7 15 6 24 6 20 1 -3 -5 -27 -17 -53 -26 -26 -10 -57 -22 -69
-27 -12 -6 -43 -8 -69 -5 -58 6 -73 24 -109 125 -25 69 -25 76 -11 106 22 47
42 61 132 94 129 48 153 48 156 -2z m-465 -165 c17 -11 34 -30 38 -43 4 -13
18 -47 32 -75 20 -41 24 -61 18 -89 -10 -56 -36 -75 -171 -122 -87 -31 -92
-32 -128 -17 -40 17 -72 61 -82 113 -3 18 -10 35 -15 38 -5 3 -9 24 -9 46 0
45 25 75 47 56 10 -8 13 -6 13 6 0 9 -5 16 -11 16 -20 0 1 18 28 24 16 4 56
19 91 33 54 23 65 24 74 12 8 -11 9 -11 4 4 -8 24 29 23 71 -2z m518 -388 c13
-87 21 -161 19 -164 -2 -4 -26 -12 -53 -19 -83 -20 -126 18 -167 147 -30 94 0
136 124 173 23 7 42 18 42 23 0 6 3 8 6 4 3 -3 16 -77 29 -164z m-363 -42 c31
-33 68 -131 68 -179 0 -44 -34 -89 -77 -102 -15 -4 -59 -20 -98 -34 -79 -29
-93 -31 -131 -14 -39 18 -88 127 -89 196 0 48 3 57 30 78 17 13 46 29 65 35
19 6 49 17 65 24 88 38 130 37 167 -4z m437 -364 c14 -56 33 -124 42 -152 l18
-50 -24 -8 c-43 -15 -88 14 -118 76 -36 77 -49 130 -38 159 13 33 59 73 91 77
3 1 16 -45 29 -102z m-305 -42 c46 -19 74 -72 96 -180 12 -58 -7 -86 -78 -118
-33 -15 -67 -27 -76 -27 -9 0 -16 -4 -16 -9 0 -16 -93 -33 -122 -22 -33 12
-68 57 -68 87 0 13 -4 24 -10 24 -12 0 -14 26 -2 33 4 2 2 3 -4 1 -7 -1 -15
11 -18 28 -18 90 0 106 199 178 62 23 56 23 99 5z"/>
<path d="M3014 5526 c-9 -23 25 -116 42 -116 24 0 26 24 6 75 -20 52 -38 67
-48 41z"/>
<path d="M3075 5361 c-3 -6 2 -36 12 -66 13 -41 23 -55 37 -55 16 0 18 5 13
35 -11 65 -45 113 -62 86z"/>
<path d="M2940 4930 c0 -5 5 -10 10 -10 6 0 10 5 10 10 0 6 -4 10 -10 10 -5 0
-10 -4 -10 -10z"/>
<path d="M2765 4860 c-3 -5 -1 -10 4 -10 6 0 11 5 11 10 0 6 -2 10 -4 10 -3 0
-8 -4 -11 -10z"/>
<path d="M2740 4750 c0 -5 4 -10 9 -10 6 0 13 5 16 10 3 6 -1 10 -9 10 -9 0
-16 -4 -16 -10z"/>
<path d="M2760 4690 c0 -5 5 -10 10 -10 6 0 10 5 10 10 0 6 -4 10 -10 10 -5 0
-10 -4 -10 -10z"/>
<path d="M2938 4663 c7 -3 16 -2 19 1 4 3 -2 6 -13 5 -11 0 -14 -3 -6 -6z"/>
<path d="M2570 4585 c0 -8 2 -15 4 -15 2 0 6 7 10 15 3 8 1 15 -4 15 -6 0 -10
-7 -10 -15z"/>
<path d="M2378 4413 c7 -3 16 -2 19 1 4 3 -2 6 -13 5 -11 0 -14 -3 -6 -6z"/>
<path d="M3134 4468 c0 -37 3 -54 7 -42 10 25 11 104 2 104 -5 0 -8 -28 -9
-62z"/>
<path d="M2906 4357 c3 -10 9 -15 12 -12 3 3 0 11 -7 18 -10 9 -11 8 -5 -6z"/>
<path d="M3008 4193 c7 -3 16 -2 19 1 4 3 -2 6 -13 5 -11 0 -14 -3 -6 -6z"/>
<path d="M2420 4185 c0 -8 5 -15 10 -15 6 0 10 7 10 15 0 8 -4 15 -10 15 -5 0
-10 -7 -10 -15z"/>
<path d="M2471 4164 c0 -11 3 -14 6 -6 3 7 2 16 -1 19 -3 4 -6 -2 -5 -13z"/>
<path d="M2756 4095 c-11 -8 -15 -15 -9 -15 6 0 16 7 23 15 16 19 11 19 -14 0z"/>
<path d="M2472 4034 c10 -10 20 -16 22 -13 3 3 -5 11 -17 18 -21 13 -21 12 -5
-5z"/>
<path d="M2550 4010 c-8 -5 -10 -10 -5 -10 6 0 17 5 25 10 8 5 11 10 5 10 -5
0 -17 -5 -25 -10z"/>
<path d="M3221 3814 c0 -11 3 -14 6 -6 3 7 2 16 -1 19 -3 4 -6 -2 -5 -13z"/>
<path d="M2797 3919 c7 -7 15 -10 18 -7 3 3 -2 9 -12 12 -14 6 -15 5 -6 -5z"/>
<path d="M2750 3900 c8 -5 24 -9 35 -9 l20 0 -20 9 c-11 5 -27 9 -35 9 -13 1
-13 0 0 -9z"/>
<path d="M2905 3700 c3 -5 8 -10 11 -10 2 0 4 5 4 10 0 6 -5 10 -11 10 -5 0
-7 -4 -4 -10z"/>
<path d="M2595 3680 c3 -5 8 -10 11 -10 2 0 4 5 4 10 0 6 -5 10 -11 10 -5 0
-7 -4 -4 -10z"/>
<path d="M2748 3633 c6 -2 18 -2 25 0 6 3 1 5 -13 5 -14 0 -19 -2 -12 -5z"/>
<path d="M2635 3610 c-3 -6 1 -7 9 -4 18 7 21 14 7 14 -6 0 -13 -4 -16 -10z"/>
<path d="M3195 3559 c-4 -6 -5 -12 -2 -15 2 -3 7 2 10 11 7 17 1 20 -8 4z"/>
<path d="M3283 3484 c-15 -16 -16 -24 -4 -24 8 0 24 30 19 35 -2 2 -9 -3 -15
-11z"/>
<path d="M3210 3469 c0 -5 5 -7 10 -4 6 3 10 8 10 11 0 2 -4 4 -10 4 -5 0 -10
-5 -10 -11z"/>
<path d="M3250 3403 c0 -13 5 -23 10 -23 13 0 13 11 0 30 -8 12 -10 11 -10 -7z"/>
<path d="M2808 3433 c6 -2 18 -2 25 0 6 3 1 5 -13 5 -14 0 -19 -2 -12 -5z"/>
<path d="M3041 3424 c0 -11 3 -14 6 -6 3 7 2 16 -1 19 -3 4 -6 -2 -5 -13z"/>
<path d="M3052 3280 c0 -14 2 -19 5 -12 2 6 2 18 0 25 -3 6 -5 1 -5 -13z"/>
<path d="M3081 3284 c0 -11 3 -14 6 -6 3 7 2 16 -1 19 -3 4 -6 -2 -5 -13z"/>
<path d="M2988 3233 c7 -3 16 -2 19 1 4 3 -2 6 -13 5 -11 0 -14 -3 -6 -6z"/>
<path d="M2938 3223 c7 -3 16 -2 19 1 4 3 -2 6 -13 5 -11 0 -14 -3 -6 -6z"/>
<path d="M2760 3210 c0 -5 5 -10 11 -10 5 0 7 5 4 10 -3 6 -8 10 -11 10 -2 0
-4 -4 -4 -10z"/>
<path d="M6361 5777 c-18 -45 -48 -114 -66 -153 -18 -39 -45 -102 -60 -140
-15 -38 -49 -123 -76 -188 -27 -66 -46 -123 -42 -127 5 -4 42 -21 83 -38 41
-18 76 -33 78 -35 1 -2 -3 -15 -9 -30 -14 -30 -15 -30 -119 15 -46 20 -67 24
-71 16 -16 -30 -239 -568 -239 -577 0 -18 107 -62 142 -58 32 3 33 6 104 178
40 96 79 192 88 213 18 46 -5 55 239 -95 98 -61 179 -108 180 -106 1 1 1 66
-1 143 l-3 141 -100 63 c-83 53 -102 61 -115 51 -21 -18 -32 -4 -49 60 -14 52
-14 53 27 149 22 53 56 134 76 181 83 201 123 297 135 320 13 25 12 26 -61 57
-114 50 -103 53 -141 -40z m195 -1056 c0 -13 -6 -17 -20 -13 -18 5 -18 6 -1
19 11 7 19 13 20 13 0 0 1 -8 1 -19z"/>
<path d="M6667 5679 c4 -13 8 -18 11 -10 2 7 -1 18 -6 23 -8 8 -9 4 -5 -13z"/>
<path d="M7569 4855 c-1 -3 -2 -8 -3 -12 -1 -5 -5 -14 -10 -22 -24 -38 -20
-191 5 -191 12 0 11 57 -2 81 -8 16 -6 29 9 59 11 22 22 37 26 33 3 -3 6 -1 6
5 0 6 -7 17 -15 25 -8 8 -11 17 -8 21 4 3 3 6 0 6 -4 0 -8 -2 -8 -5z m-2 -67
c-3 -8 -6 -5 -6 6 -1 11 2 17 5 13 3 -3 4 -12 1 -19z"/>
<path d="M7428 4715 c-26 -34 -23 -81 7 -110 13 -14 33 -25 45 -25 24 0 24 -2
0 55 -11 26 -20 57 -20 70 0 33 -12 37 -32 10z"/>
<path d="M6730 4481 c0 -42 4 -53 23 -66 22 -14 131 -55 148 -55 10 0 31 66
27 86 -2 10 -34 27 -83 44 -44 15 -88 31 -97 35 -16 6 -18 1 -18 -44z"/>
<path d="M7055 4303 c-11 -32 -25 -69 -32 -83 -24 -47 -18 -54 83 -89 54 -19
99 -30 103 -25 9 10 71 171 71 184 0 9 -164 70 -189 70 -12 0 -23 -18 -36 -57z"/>
<path d="M7324 4177 c-17 -45 -34 -89 -38 -98 -6 -13 9 -22 71 -47 136 -54
125 -57 163 45 18 48 35 93 37 99 3 9 -170 84 -194 84 -5 0 -22 -37 -39 -83z"/>
<path d="M5780 4181 c0 -10 -7 -38 -15 -61 -8 -24 -13 -45 -11 -47 2 -2 12 18
21 46 9 28 21 51 26 51 5 0 9 7 9 15 0 8 -7 15 -15 15 -8 0 -15 -8 -15 -19z"/>
<path d="M4312 4153 c-36 -2 -60 -8 -57 -13 4 -6 0 -10 -8 -10 -39 0 -107 -90
-107 -142 0 -18 -2 -20 -10 -8 -13 21 -1 90 22 120 11 14 31 30 46 37 20 9 22
12 9 13 -32 0 -74 -31 -98 -74 -22 -38 -24 -54 -25 -198 -2 -146 -1 -158 18
-175 11 -10 31 -41 43 -69 27 -61 32 -65 88 -66 23 0 68 -9 99 -19 72 -23 111
-13 177 44 27 23 65 55 85 70 80 61 99 162 45 235 -19 26 -33 58 -35 85 -11
100 -14 108 -34 102 -12 -4 -37 4 -64 20 -24 14 -61 28 -83 30 -21 2 -42 4
-48 5 -5 1 -1 5 10 10 11 5 13 8 5 7 -8 0 -43 -2 -78 -4z m348 -334 c0 -26 -8
-47 -25 -66 -28 -32 -33 -17 -9 28 11 21 14 44 9 72 -5 39 -5 41 10 23 8 -11
15 -37 15 -57z m-377 -130 c68 -18 75 -23 41 -27 -64 -7 -138 48 -159 118 -5
18 5 10 34 -27 32 -40 52 -55 84 -64z"/>
<path d="M7724 4142 c-6 -4 -30 -54 -53 -112 -24 -58 -71 -175 -106 -260 -93
-230 -110 -266 -136 -284 -36 -25 13 -39 -549 160 -97 35 -162 63 -174 77
l-19 22 7 -40 c10 -52 31 -91 59 -110 37 -24 627 -225 662 -225 18 0 47 10 65
23 35 23 37 28 196 412 26 61 57 134 70 164 25 53 25 53 62 48 83 -14 77 -18
80 46 2 33 -1 56 -6 53 -5 -3 -38 4 -73 14 -73 23 -70 22 -85 12z"/>
<path d="M6938 3995 c-20 -52 -33 -97 -28 -100 14 -9 193 -76 194 -73 19 34
74 194 68 199 -9 10 -169 69 -185 69 -7 0 -29 -43 -49 -95z"/>
<path d="M7217 3897 c-16 -45 -29 -89 -30 -97 -2 -16 140 -79 178 -80 16 0 26
17 53 89 17 48 32 92 32 97 0 5 -28 20 -62 33 -35 12 -71 27 -80 32 -10 5 -28
9 -40 9 -20 0 -27 -12 -51 -83z"/>
</g>
</svg>
